<?xml version="1.0" standalone="no"?>
<!DOCTYPE svg PUBLIC "-//W3C//DTD SVG 20010904//EN"
 "http://www.w3.org/TR/2001/REC-SVG-20010904/DTD/svg10.dtd">
<svg version="1.0" xmlns="http://www.w3.org/2000/svg"
 width="33.000000pt" height="33.000000pt" viewBox="0 0 33.000000 33.000000"
 preserveAspectRatio="xMidYMid meet">

<g transform="translate(0.000000,33.000000) scale(0.100000,-0.100000)"
fill="#cb3441" stroke="none">
<path d="M20 290 c0 -5 6 -10 13 -10 6 0 23 -25 35 -54 19 -44 22 -58 12 -76
-22 -42 -8 -50 90 -50 53 0 90 4 90 10 0 6 -33 10 -80 10 -64 0 -80 3 -80 15
0 12 13 15 58 15 44 0 63 5 74 18 19 21 48 77 48 92 0 6 -38 10 -105 10 -85 0
-107 3 -111 15 -7 17 -44 21 -44 5z"/>
<path d="M74 65 c-4 -9 -2 -21 4 -27 15 -15 44 -1 40 19 -4 23 -36 29 -44 8z"/>
<path d="M214 65 c-4 -9 -2 -21 4 -27 15 -15 44 -1 40 19 -4 23 -36 29 -44 8z"/>
</g>
</svg>
