<?xml version="1.0" standalone="no"?>
<!DOCTYPE svg PUBLIC "-//W3C//DTD SVG 20010904//EN"
 "http://www.w3.org/TR/2001/REC-SVG-20010904/DTD/svg10.dtd">
<svg version="1.0" xmlns="http://www.w3.org/2000/svg"
 width="204.000000pt" height="237.000000pt" viewBox="0 0 204.000000 237.000000"
 preserveAspectRatio="xMidYMid meet">

<g transform="translate(0.000000,237.000000) scale(0.100000,-0.100000)"
fill="#dd8890" stroke="none">
<path d="M795 2361 c-37 -16 -59 -51 -65 -104 l-5 -52 -332 -5 -331 -5 -26
-24 c-25 -24 -26 -28 -26 -151 0 -85 4 -130 12 -138 17 -17 1979 -17 1996 0 8
8 12 53 12 134 0 115 -1 125 -24 151 l-24 28 -331 3 -331 3 0 47 c0 27 -7 57
-16 70 -33 47 -58 52 -281 51 -114 0 -217 -4 -228 -8z"/>
<path d="M134 1616 c-19 -19 -34 -42 -34 -52 0 -10 32 -346 70 -747 51 -524
75 -737 86 -759 31 -60 16 -59 783 -56 692 3 700 3 728 24 15 11 33 38 40 60
12 38 144 1381 143 1457 0 49 -13 73 -50 92 -25 13 -141 15 -881 15 l-851 0
-34 -34z m507 -374 l32 -28 18 -320 c25 -441 25 -449 -6 -480 -21 -21 -33 -25
-72 -22 -83 5 -84 8 -104 370 -25 445 -25 443 10 479 39 38 80 39 122 1z m447
-8 c22 -25 22 -25 22 -408 l0 -383 -25 -27 c-51 -56 -145 -23 -160 55 -3 19
-5 192 -3 385 3 336 4 353 23 374 42 47 104 49 143 4z m449 14 c32 -27 33 -58
13 -425 -25 -435 -24 -433 -120 -433 -31 0 -43 6 -65 32 -25 29 -26 36 -21
102 4 39 13 204 22 366 8 162 20 308 26 323 20 52 101 72 145 35z"/>
</g>
</svg>
